<svg width="21" height="20" viewBox="0 0 21 20" fill="none" xmlns="http://www.w3.org/2000/svg">
<path d="M11.998 20H9.998V17H11.998V20ZM17.362 17.778L15.241 15.657L16.655 14.243L18.777 16.365L17.364 17.778H17.362ZM4.634 17.778L3.219 16.364L5.339 14.242L6.754 15.656L4.634 17.777V17.778ZM10.998 15.007C8.23297 15.0059 5.99226 12.7637 5.993 9.99867C5.99374 7.23364 8.23564 4.99263 11.0007 4.993C13.7657 4.99337 16.007 7.23497 16.007 10C16.0042 12.7649 13.7629 15.0053 10.998 15.007ZM10.998 6.993C9.33754 6.9941 7.99227 8.34087 7.993 10.0013C7.99374 11.6618 9.34021 13.0074 11.0007 13.007C12.6611 13.0066 14.007 11.6605 14.007 10C14.0053 8.33918 12.6588 6.99355 10.998 6.993ZM20.998 11H17.998V9H20.998V11ZM3.998 11H0.998001V9H3.998V11ZM16.654 5.758L15.241 4.343L17.362 2.221L18.777 3.636L16.655 5.757L16.654 5.758ZM5.341 5.758L3.221 3.637L4.636 2.223L6.756 4.345L5.342 5.757L5.341 5.758ZM11.998 3H9.998V0H11.998V3Z" fill="#0F1828"/>
</svg>
