<svg width="19" height="17" viewBox="0 0 19 17" fill="none" xmlns="http://www.w3.org/2000/svg">
<path fill-rule="evenodd" clip-rule="evenodd" d="M2.87716 0.830968C4.0281 -0.0250317 5.55139 0.165829 6.57689 0.994459L7.25174 1.53978C8.68584 2.6985 8.86694 4.81429 7.65094 6.20007L7.55724 6.30687C7.04844 6.88667 7.03484 7.58127 7.37794 7.97257C7.94054 8.61417 8.71944 9.20727 9.92814 9.88497C10.5774 10.2491 11.4256 10.0913 11.956 9.48677L12.5198 9.98137L11.956 9.48677L12.0212 9.41247C13.1733 8.09947 15.1592 7.92917 16.5179 9.02697L17.1442 9.53307C18.2839 10.4539 18.7648 12.1445 17.8599 13.4858C17.2046 14.457 16.4642 15.2296 15.5847 15.8628C14.8632 16.3822 13.9643 16.4781 13.1715 16.2652C10.1186 15.4454 7.62564 14.2789 5.55559 12.5972C3.48403 10.9142 1.87388 8.74587 0.543746 5.97624C0.254326 5.3736 0.129506 4.61866 0.401246 3.89363C0.851536 2.6922 1.68411 1.71829 2.87716 0.830968ZM5.63416 2.16119C5.04891 1.6883 4.28431 1.65379 3.77233 2.03457C2.73625 2.80516 2.12668 3.564 1.80583 4.42006C1.71249 4.66912 1.73509 4.99202 1.8959 5.32685C3.15112 7.94047 4.63551 9.91697 6.50143 11.4329C8.36884 12.9501 10.6562 14.0367 13.5605 14.8166C13.9863 14.9309 14.4061 14.863 14.7083 14.6455C15.4336 14.1233 16.0527 13.4824 16.6164 12.6469C17.0029 12.0739 16.8584 11.2306 16.2014 10.6998L15.5751 10.1937C14.8425 9.60177 13.7701 9.69357 13.1487 10.4018L12.585 9.90717L13.1487 10.4018L13.0835 10.4761C12.1262 11.5671 10.5135 11.9329 9.19454 11.1934C7.90714 10.4716 6.96784 9.78007 6.25008 8.96147C5.2545 7.82597 5.59844 6.26497 6.42975 5.31752L6.52342 5.21076C7.17734 4.46548 7.08004 3.32944 6.30905 2.70651L5.63416 2.16119Z" fill="#4FBC87"/>
</svg>
