<svg width="19" height="19" viewBox="0 0 19 19" fill="none" xmlns="http://www.w3.org/2000/svg">
<circle cx="6" cy="8" r="1" fill="#292D32"/>
<circle cx="10" cy="8" r="1" fill="#292D32"/>
<circle cx="14" cy="8" r="1" fill="#292D32"/>
<path d="M18.5 0.5L1.37812 18.3841" stroke="#292D32" stroke-linecap="round" stroke-linejoin="round"/>
<path d="M2 4.8V12C2 13.1046 2.89543 14 4 14H4.24257C4.66089 14 5 14.3391 5 14.7574C5 15.5821 5.0696 16.802 5.89389 16.7789C6.45312 16.7632 6.65302 16.0796 6.95715 15.6101L7.17235 15.2778C7.68844 14.481 8.57311 14 9.52245 14H15.2C16.7464 14 18 12.7466 18 11.2002V4.79978C18 3.25338 16.7468 2 15.2004 2H4.79958C3.25319 2 2 3.2536 2 4.8Z" stroke="#292D32" stroke-width="1.5" stroke-linecap="round"/>
</svg>
