<svg width="16" height="18" viewBox="0 0 16 18" fill="none" xmlns="http://www.w3.org/2000/svg">
<path fill-rule="evenodd" clip-rule="evenodd" d="M6.34376 1.02564C7.38024 0.478921 8.61976 0.478921 9.65624 1.02564L13.8562 3.24102C15.021 3.85541 15.75 5.0641 15.75 6.38099V14.2C15.75 16.1606 14.1606 17.75 12.2 17.75H3.8C1.83939 17.75 0.25 16.1606 0.25 14.2L0.25 6.38099C0.25 5.0641 0.978975 3.85541 2.14376 3.24102L6.34376 1.02564ZM8.95642 2.35238C8.35789 2.03667 7.64211 2.03667 7.04358 2.35238L2.84358 4.56777C2.17096 4.92256 1.75 5.62053 1.75 6.38099L1.75 14.2C1.75 15.3321 2.66782 16.25 3.8 16.25H12.2C13.3322 16.25 14.25 15.3321 14.25 14.2V6.38099C14.25 5.62053 13.829 4.92256 13.1564 4.56777L8.95642 2.35238Z" fill="#77838F"/>
</svg>
