<svg width="262" height="273" viewBox="0 0 262 273" fill="none" xmlns="http://www.w3.org/2000/svg">
<rect x="3.89355" y="43" width="117.463" height="117.463" rx="58.7314" fill="#CDE1FD"/>
<g clip-path="url(#clip0_59_163)">
<path d="M94.8316 71.6703L101.685 65.6164H94.6945L94.8316 71.6703Z" fill="#1B2B48"/>
<path d="M131.53 66.3017H97.4269C92.2086 66.3017 87.9783 62.0714 87.9783 56.8531V52.4486C87.9783 47.2303 92.2086 43 97.4269 43L131.53 43C136.748 43 140.978 47.2303 140.978 52.4486V56.8531C140.978 62.0714 136.748 66.3017 131.53 66.3017Z" fill="#1B2B48"/>
<path d="M107.396 56.7069C106.261 56.7069 105.34 55.7864 105.34 54.6509C105.34 53.5153 106.261 52.5948 107.396 52.5948C108.532 52.5948 109.452 53.5153 109.452 54.6509C109.452 55.7864 108.532 56.7069 107.396 56.7069Z" fill="white"/>
<path d="M114.478 56.7069C113.343 56.7069 112.422 55.7864 112.422 54.6509C112.422 53.5153 113.343 52.5948 114.478 52.5948C115.614 52.5948 116.534 53.5153 116.534 54.6509C116.534 55.7864 115.614 56.7069 114.478 56.7069Z" fill="white"/>
<path d="M121.56 56.7069C120.425 56.7069 119.504 55.7864 119.504 54.6509C119.504 53.5153 120.425 52.5948 121.56 52.5948C122.696 52.5948 123.616 53.5153 123.616 54.6509C123.616 55.7864 122.696 56.7069 121.56 56.7069Z" fill="white"/>
</g>
<path d="M127.264 144.517L118.17 141.322L111.209 161.134L120.302 164.329L127.264 144.517Z" fill="#1F161E"/>
<path d="M132.978 240.212C133.37 240.829 135.457 244.541 136.613 244.921C138.707 245.602 149.546 241.693 149.838 241.177C150.13 240.66 149.964 239.806 149.353 239.732C148.741 239.659 143.904 240.391 143.119 240.286C142.335 240.18 140.521 238.914 140.308 238" fill="#1F161E"/>
<path d="M0.978271 183.244C0.978271 208.183 12.1723 213.42 23.3078 213.42C51.5145 213.42 88.2112 197.385 90.2832 196.767C89.6316 199.39 85.5202 265.885 85.5202 266.268C86.4976 266.809 93.9907 267.275 96.5123 266.809C97.1639 265.192 116.978 186.103 116.978 184.02C116.978 181.937 115.271 178.769 108.814 178.312C106.084 178.118 68.1036 177 68.1036 177" fill="#1F161E"/>
<path d="M95.8656 166C104.364 174.746 142.313 235.799 141.976 237.226C141.639 238.653 132.914 241.678 131.07 240.863C123.245 237.434 75.1988 179.81 73.3282 178.94C71.4577 178.07 68.6551 178.406 66.9851 178.645C62.6421 173.513 72.3638 167.418 95.8656 166Z" fill="#0F1828"/>
<path d="M57.5023 96.266C70.2797 96.266 73.9537 108.365 75.0108 112.933C78.3912 127.518 68.9811 182.94 67.8913 184.468C58.6443 197.395 5.78609 198.543 0.630775 192.944C-4.52454 187.345 22.5898 96.266 57.5023 96.266Z" fill="#55ACEE"/>
<path d="M86.9755 266C86.804 266.63 85.5117 270.318 86.1579 271.039C87.3184 272.343 99.3916 273.242 100.051 272.942C100.71 272.642 101.258 271.908 100.822 271.639C100.387 271.37 95.8112 270.162 95.2507 269.788C94.6902 269.415 94.2221 267.755 94.7957 266.956" fill="#1F161E"/>
<path d="M55.5903 98.8175C55.2444 99.9269 64.2629 102.733 64.6088 101.63L68.1066 90.4059L59.0946 87.5933L55.5903 98.8175Z" fill="#F8CDBA"/>
<path d="M64.5305 93.0619C63.6496 92.7878 57.2478 93.5252 56.8171 94.9086L59.0946 87.5933C60.4976 88.0305 64.5305 93.0619 64.5305 93.0619Z" fill="#1F161E"/>
<path d="M69.562 94.863C76.8746 94.863 82.8026 88.9349 82.8026 81.6223C82.8026 74.3097 76.8746 68.3816 69.562 68.3816C62.2493 68.3816 56.3213 74.3097 56.3213 81.6223C56.3213 88.9349 62.2493 94.863 69.562 94.863Z" fill="#F8CDBA"/>
<path d="M82.7686 88.5974C82.9672 87.9609 82.1353 87.1351 80.9105 86.753C79.6857 86.3708 78.5319 86.5769 78.3332 87.2134C78.1346 87.8499 78.9665 88.6757 80.1913 89.0579C81.4161 89.44 82.57 89.2339 82.7686 88.5974Z" fill="#FA9E9F"/>
<path d="M68.8465 84.2561C69.0451 83.6197 68.2132 82.7939 66.9884 82.4117C65.7636 82.0295 64.6097 82.2356 64.4111 82.8721C64.2125 83.5086 65.0444 84.3344 66.2692 84.7166C67.494 85.0988 68.6479 84.8926 68.8465 84.2561Z" fill="#FA9E9F"/>
<path d="M75.8984 83.8345C76.1268 84.5523 77.4842 87.6977 74.9326 88.0044" stroke="#0F1828" stroke-width="1.2" stroke-miterlimit="10" stroke-linecap="round"/>
<path d="M69.5554 89.5054C68.9028 89.277 68.1197 88.1545 67.813 87.2344" stroke="#0F1828" stroke-width="1.2" stroke-miterlimit="10" stroke-linecap="round"/>
<path d="M73.5687 64.2508C70.0774 63.8136 59.943 60.7987 57.6394 58.704C56.5496 59.2783 52.3144 63.0827 48.8623 68.2315L53.7632 73.1584L47.5703 70.3002C45.9382 72.9745 44.8164 75.9285 44.2617 79.012C45.8605 83.3255 50.8788 85.1005 51.825 85.218C57.9266 85.988 60.2693 76.5061 63.3429 75.3315C68.5635 73.3281 74.7107 78.5291 82.4437 78.2028C84.1599 74.6985 81.9281 65.3015 73.5687 64.2508Z" fill="#1F161E"/>
<path d="M57.4241 82.4902C59.1144 82.4902 60.4846 81.12 60.4846 79.4297C60.4846 77.7394 59.1144 76.3691 57.4241 76.3691C55.7338 76.3691 54.3635 77.7394 54.3635 79.4297C54.3635 81.12 55.7338 82.4902 57.4241 82.4902Z" fill="#F8CDBA"/>
<path d="M44.2616 127.302C43.609 131.387 41.4947 169.961 46.5586 173.713C57.4044 181.746 107.489 171.919 115.079 169.106C115.901 166.417 115.079 157.875 115.079 157.875C112.155 157.758 75.2718 157.405 73.0726 154.612C70.8734 151.819 70.6124 128.986 70.9648 126.408" fill="#55ACEE"/>
<path d="M120.182 170C124.099 170 127.275 166.824 127.275 162.907C127.275 158.989 124.099 155.813 120.182 155.813C116.264 155.813 113.088 158.989 113.088 162.907C113.088 166.824 116.264 170 120.182 170Z" fill="#F8CDBA"/>
<path d="M73.0662 154.632C70.8409 151.819 70.606 129.005 70.9584 126.428" stroke="#0F1828" stroke-linecap="round" stroke-linejoin="round"/>
<path d="M69.601 176.611C59.3818 177.178 50.4481 176.611 46.5588 173.713C44.34 172.075 43.4982 163.768 43.2959 154.599" stroke="#0F1828" stroke-linecap="round" stroke-linejoin="round"/>
<g clip-path="url(#clip1_59_163)">
<rect x="162" width="100" height="100" rx="50" fill="#C3FEE1"/>
<g clip-path="url(#clip2_59_163)">
<path d="M176.094 56.6804C174.972 55.8937 170.217 50.113 169.657 48.1702C169.096 46.2273 168.675 38.9037 174.22 40.5683C179.766 42.233 177.263 48.1006 181.175 51.7994" fill="#F8CDBA"/>
<path d="M174.238 35.3286L169.221 39.3337L177.947 50.2646L182.964 46.2595L174.238 35.3286Z" fill="#1F161E"/>
<path d="M244.802 51.7994C246.166 53.0686 260.123 76.5738 260.123 79.5163C260.123 82.4588 256.902 100.305 255.05 104.113C253.199 107.92 244.802 51.7994 244.802 51.7994Z" fill="#1F161E"/>
<path d="M236.591 45.2581C256.68 45.2581 259.306 116.052 257.889 118.899C256.472 121.746 221.344 121.416 218.497 118.899C215.65 116.382 218.115 45.2581 236.591 45.2581Z" fill="#58D582"/>
<path d="M232.979 47.6225C232.979 48.883 239.934 48.9786 239.934 47.6225V39.1731H232.979V47.6225Z" fill="#F8CDBA"/>
<path d="M239.942 44.2106C239.942 43.4587 238.204 40.8639 236.9 41.3029C238.538 40.7248 239.347 38.7515 239.942 39.1558V44.2106Z" fill="#1B2B48"/>
<path d="M233.371 42.0157C238.366 42.0157 242.415 37.9662 242.415 32.9708C242.415 27.9755 238.366 23.926 233.371 23.926C228.375 23.926 224.326 27.9755 224.326 32.9708C224.326 37.9662 228.375 42.0157 233.371 42.0157Z" fill="#F8CDBA"/>
<path d="M224.226 34.9702C225.059 34.9702 225.734 34.618 225.734 34.1835C225.734 33.749 225.059 33.3968 224.226 33.3968C223.393 33.3968 222.718 33.749 222.718 34.1835C222.718 34.618 223.393 34.9702 224.226 34.9702Z" fill="#FA9E9F"/>
<path d="M233.709 34.9702C234.542 34.9702 235.218 34.618 235.218 34.1835C235.218 33.749 234.542 33.3968 233.709 33.3968C232.877 33.3968 232.201 33.749 232.201 34.1835C232.201 34.618 232.877 34.9702 233.709 34.9702Z" fill="#FA9E9F"/>
<path d="M227.898 32.5536C227.62 32.9578 226.16 34.6486 227.698 35.3309" stroke="#1B2B48" stroke-width="0.69" stroke-miterlimit="10" stroke-linecap="round"/>
<path d="M230.75 37.3042C231.184 37.3042 231.901 36.7435 232.271 36.235" stroke="#1B2B48" stroke-width="0.69" stroke-miterlimit="10" stroke-linecap="round"/>
<path d="M242.016 27.6987C242.016 24.5606 237.639 22.2222 234.592 22.2222C229.741 22.2222 223.83 23.4044 222.857 23.7478C221.222 24.3172 220.944 26.0601 220.944 26.6425C220.944 29.0852 221.813 30.6064 224.526 30.9889C224.711 30.1272 225.031 29.3001 225.473 28.5375C226.224 28.249 227.052 28.2352 227.812 28.4984C228.498 28.7375 234.235 31.4409 238.482 31.4409C239.047 32.2363 240.29 37.0912 239.925 39.1514C241.168 39.2253 243.459 35.1788 243.576 33.0665C243.602 32.3416 243.459 31.6205 243.157 30.9609C242.855 30.3013 242.403 29.7215 241.837 29.2677C241.894 28.8113 242.016 27.9464 242.016 27.6987Z" fill="#1B2B48"/>
<path d="M238.882 35.3918C239.981 35.3918 240.872 34.5005 240.872 33.4011C240.872 32.3017 239.981 31.4105 238.882 31.4105C237.782 31.4105 236.891 32.3017 236.891 33.4011C236.891 34.5005 237.782 35.3918 238.882 35.3918Z" fill="#F8CDBA"/>
<path d="M241.872 64.3822C236.891 71.9927 209.961 83.9975 207.127 83.9975C199.612 83.9975 177.363 59.3056 176.094 56.6717C177.559 55.107 180.679 51.7907 181.166 51.7907C181.653 51.7907 202.833 66.4293 206.836 66.4293C210.839 66.4293 229.811 53.0816 232.28 52.4818" fill="#58D582"/>
<path d="M225.569 56.3023C228.85 54.2638 231.462 52.6774 232.28 52.4818" stroke="#1B2B48" stroke-linecap="round" stroke-linejoin="round"/>
<path d="M219.932 78.9209C228.624 74.744 238.973 68.8242 241.872 64.3909" stroke="#1B2B48" stroke-linecap="round" stroke-linejoin="round"/>
<path d="M218.528 89.6912C218.706 87.9918 227.512 75.07 229.211 74.0703C227.407 75.0743 220.579 78.5384 219.931 78.9209C219.553 79.9336 218.528 89.6912 218.528 89.6912Z" fill="#1F161E"/>
</g>
</g>
<g clip-path="url(#clip3_59_163)">
<path d="M192.922 26.4246L186.845 21.056H193.044L192.922 26.4246Z" fill="#1B2B48"/>
<path d="M160.379 21.6638L190.621 21.6638C195.249 21.6638 199 17.9124 199 13.2848V9.37897C199 4.75139 195.249 1 190.621 1L160.379 1C155.751 1 152 4.75139 152 9.37897V13.2848C152 17.9124 155.751 21.6638 160.379 21.6638Z" fill="#1B2B48"/>
<path d="M181.78 13.1552C182.787 13.1552 183.603 12.3389 183.603 11.3319C183.603 10.3249 182.787 9.50862 181.78 9.50862C180.773 9.50862 179.957 10.3249 179.957 11.3319C179.957 12.3389 180.773 13.1552 181.78 13.1552Z" fill="white"/>
<path d="M175.5 13.1552C176.507 13.1552 177.323 12.3389 177.323 11.3319C177.323 10.3249 176.507 9.50862 175.5 9.50862C174.493 9.50862 173.677 10.3249 173.677 11.3319C173.677 12.3389 174.493 13.1552 175.5 13.1552Z" fill="white"/>
<path d="M169.22 13.1552C170.227 13.1552 171.043 12.3389 171.043 11.3319C171.043 10.3249 170.227 9.50862 169.22 9.50862C168.213 9.50862 167.396 10.3249 167.396 11.3319C167.396 12.3389 168.213 13.1552 169.22 13.1552Z" fill="white"/>
</g>
<defs>
<clipPath id="clip0_59_163">
<rect width="53" height="28.6703" fill="white" transform="matrix(-1 0 0 1 140.978 43)"/>
</clipPath>
<clipPath id="clip1_59_163">
<rect x="162" width="100" height="100" rx="50" fill="white"/>
</clipPath>
<clipPath id="clip2_59_163">
<rect width="111.111" height="219.523" fill="white" transform="translate(169.222 22.2222)"/>
</clipPath>
<clipPath id="clip3_59_163">
<rect width="47" height="25.4246" fill="white" transform="translate(152 1)"/>
</clipPath>
</defs>
</svg>
