<svg width="153" height="200" viewBox="0 0 153 200" fill="none" xmlns="http://www.w3.org/2000/svg">
<path d="M0 0H153V29H0V0Z" fill="url(#paint0_linear_171_792)"/>
<path d="M47 168C47 162.477 51.4772 158 57 158H137C142.523 158 147 162.477 147 168V189H57C51.4772 189 47 184.523 47 179V168Z" fill="#4FBC87"/>
<path d="M21 41H96C101.523 41 106 45.4772 106 51V62C106 67.5228 101.523 72 96 72H31C25.4772 72 21 67.5228 21 62V41Z" fill="#EFEEF4"/>
<path d="M37 90C37 84.4772 41.4772 80 47 80H136.813C142.336 80 146.813 84.4772 146.813 90V109H47C41.4772 109 37 104.523 37 99V90Z" fill="#4FBC87"/>
<path d="M44.7333 96.4333C44.7333 96.1129 44.993 95.8533 45.3133 95.8533C45.6336 95.8533 45.8933 96.1129 45.8933 96.4333V101.267C45.2527 101.267 44.7333 100.747 44.7333 100.107V96.4333Z" fill="white"/>
<path d="M48.6 96.4333C48.6 96.1129 48.8597 95.8533 49.18 95.8533C49.5003 95.8533 49.76 96.1129 49.76 96.4333V101.267C49.1193 101.267 48.6 100.747 48.6 100.107V96.4333Z" fill="white"/>
<path d="M60.2 96.4333C60.2 96.1129 60.4597 95.8533 60.78 95.8533C61.1003 95.8533 61.36 96.1129 61.36 96.4333V101.267C60.7193 101.267 60.2 100.747 60.2 100.107V96.4333Z" fill="white"/>
<path d="M77.6 96.4333C77.6 96.1129 77.8597 95.8533 78.18 95.8533C78.5003 95.8533 78.76 96.1129 78.76 96.4333V101.267C78.1193 101.267 77.6 100.747 77.6 100.107V96.4333Z" fill="white"/>
<path d="M100.8 96.4333C100.8 96.1129 101.06 95.8533 101.38 95.8533C101.7 95.8533 101.96 96.1129 101.96 96.4333V101.267C101.319 101.267 100.8 100.747 100.8 100.107V96.4333Z" fill="white"/>
<path d="M50.5333 96.0466C50.5333 95.7262 50.793 95.4666 51.1133 95.4666C51.4337 95.4666 51.6933 95.7262 51.6933 96.0466V101.653C51.0527 101.653 50.5333 101.134 50.5333 100.493V96.0466Z" fill="white"/>
<path d="M58.2667 96.0466C58.2667 95.7262 58.5263 95.4666 58.8467 95.4666C59.167 95.4666 59.4267 95.7262 59.4267 96.0466V101.653C58.786 101.653 58.2667 101.134 58.2667 100.493V96.0466Z" fill="white"/>
<path d="M75.6667 96.0466C75.6667 95.7262 75.9263 95.4666 76.2467 95.4666C76.567 95.4666 76.8267 95.7262 76.8267 96.0466V101.653C76.186 101.653 75.6667 101.134 75.6667 100.493V96.0466Z" fill="white"/>
<path d="M98.8667 96.0466C98.8667 95.7262 99.1263 95.4666 99.4467 95.4666C99.767 95.4666 100.027 95.7262 100.027 96.0466V101.653C99.386 101.653 98.8667 101.134 98.8667 100.493V96.0466Z" fill="white"/>
<path d="M67.9333 96.0466C67.9333 95.7262 68.193 95.4666 68.5133 95.4666C68.8336 95.4666 69.0933 95.7262 69.0933 96.0466V101.653C68.4527 101.653 67.9333 101.134 67.9333 100.493V96.0466Z" fill="white"/>
<path d="M52.4667 95.6598C52.4667 95.3395 52.7263 95.0798 53.0467 95.0798C53.367 95.0798 53.6267 95.3395 53.6267 95.6598V102.04C52.986 102.04 52.4667 101.52 52.4667 100.88V95.6598Z" fill="white"/>
<path d="M64.0667 95.6598C64.0667 95.3395 64.3263 95.0798 64.6467 95.0798C64.967 95.0798 65.2267 95.3395 65.2267 95.6598V102.04C64.586 102.04 64.0667 101.52 64.0667 100.88V95.6598Z" fill="white"/>
<path d="M56.3333 95.6598C56.3333 95.3395 56.593 95.0798 56.9133 95.0798C57.2337 95.0798 57.4933 95.3395 57.4933 95.6598V102.04C56.8527 102.04 56.3333 101.52 56.3333 100.88V95.6598Z" fill="white"/>
<path d="M73.7333 95.6598C73.7333 95.3395 73.993 95.0798 74.3133 95.0798C74.6336 95.0798 74.8933 95.3395 74.8933 95.6598V102.04C74.2527 102.04 73.7333 101.52 73.7333 100.88V95.6598Z" fill="white"/>
<path d="M96.9333 95.6598C96.9333 95.3395 97.193 95.0798 97.5133 95.0798C97.8336 95.0798 98.0933 95.3395 98.0933 95.6598V102.04C97.4527 102.04 96.9333 101.52 96.9333 100.88V95.6598Z" fill="white"/>
<path d="M66 95.6598C66 95.3395 66.2597 95.0798 66.58 95.0798C66.9003 95.0798 67.16 95.3395 67.16 95.6598V102.04C66.5193 102.04 66 101.52 66 100.88V95.6598Z" fill="white"/>
<path d="M54.4 94.1132C54.4 93.7929 54.6597 93.5332 54.98 93.5332C55.3003 93.5332 55.56 93.7929 55.56 94.1132V103.587C54.9193 103.587 54.4 103.067 54.4 102.427V94.1132Z" fill="white"/>
<path d="M71.8 94.1132C71.8 93.7929 72.0597 93.5332 72.38 93.5332C72.7003 93.5332 72.96 93.7929 72.96 94.1132V103.587C72.3193 103.587 71.8 103.067 71.8 102.427V94.1132Z" fill="white"/>
<path d="M87.2667 94.1132C87.2667 93.7929 87.5263 93.5332 87.8467 93.5332C88.167 93.5332 88.4267 93.7929 88.4267 94.1132V103.587C87.786 103.587 87.2667 103.067 87.2667 102.427V94.1132Z" fill="white"/>
<path d="M46.6667 96.82C46.6667 96.4997 46.9263 96.24 47.2467 96.24C47.567 96.24 47.8267 96.4997 47.8267 96.82V100.88C47.186 100.88 46.6667 100.361 46.6667 99.72V96.82Z" fill="white"/>
<path d="M62.1333 96.82C62.1333 96.4997 62.393 96.24 62.7133 96.24C63.0336 96.24 63.2933 96.4997 63.2933 96.82V100.88C62.6527 100.88 62.1333 100.361 62.1333 99.72V96.82Z" fill="white"/>
<path d="M79.5333 96.82C79.5333 96.4997 79.793 96.24 80.1133 96.24C80.4337 96.24 80.6933 96.4997 80.6933 96.82V100.88C80.0527 100.88 79.5333 100.361 79.5333 99.72V96.82Z" fill="white"/>
<path d="M95 96.82C95 96.4997 95.2597 96.24 95.58 96.24C95.9003 96.24 96.16 96.4997 96.16 96.82V100.88C95.5193 100.88 95 100.361 95 99.72V96.82Z" fill="white"/>
<path d="M81.4667 97.2065C81.4667 96.8861 81.7263 96.6265 82.0467 96.6265C82.367 96.6265 82.6267 96.8861 82.6267 97.2065V100.493C81.986 100.493 81.4667 99.9738 81.4667 99.3331V97.2065Z" fill="white"/>
<path d="M102.733 97.2065C102.733 96.8861 102.993 96.6265 103.313 96.6265C103.634 96.6265 103.893 96.8861 103.893 97.2065V100.493C103.253 100.493 102.733 99.9738 102.733 99.3331V97.2065Z" fill="white"/>
<path d="M93.0667 97.2065C93.0667 96.8861 93.3263 96.6265 93.6467 96.6265C93.967 96.6265 94.2267 96.8861 94.2267 97.2065V100.493C93.586 100.493 93.0667 99.9738 93.0667 99.3331V97.2065Z" fill="white"/>
<path d="M83.4 97.5932C83.4 97.2729 83.6597 97.0132 83.98 97.0132C84.3003 97.0132 84.56 97.2729 84.56 97.5932V100.107C83.9193 100.107 83.4 99.5872 83.4 98.9465V97.5932Z" fill="white"/>
<path d="M104.667 97.5932C104.667 97.2729 104.926 97.0132 105.247 97.0132C105.567 97.0132 105.827 97.2729 105.827 97.5932V100.107C105.186 100.107 104.667 99.5872 104.667 98.9465V97.5932Z" fill="white"/>
<path d="M91.1333 97.5932C91.1333 97.2729 91.393 97.0132 91.7133 97.0132C92.0337 97.0132 92.2933 97.2729 92.2933 97.5932V100.107C91.6527 100.107 91.1333 99.5872 91.1333 98.9465V97.5932Z" fill="white"/>
<path d="M85.3333 97.9799C85.3333 97.6596 85.593 97.3999 85.9133 97.3999C86.2336 97.3999 86.4933 97.6596 86.4933 97.9799V99.7199C85.8527 99.7199 85.3333 99.2006 85.3333 98.5599V97.9799Z" fill="white"/>
<path d="M106.6 97.9799C106.6 97.6596 106.86 97.3999 107.18 97.3999C107.5 97.3999 107.76 97.6596 107.76 97.9799V99.7199C107.119 99.7199 106.6 99.2006 106.6 98.5599V97.9799Z" fill="white"/>
<path d="M89.2 97.9799C89.2 97.6596 89.4597 97.3999 89.78 97.3999C90.1003 97.3999 90.36 97.6596 90.36 97.9799V99.7199C89.7193 99.7199 89.2 99.2006 89.2 98.5599V97.9799Z" fill="white"/>
<path d="M69.8667 96.82C69.8667 96.4997 70.1263 96.24 70.4467 96.24C70.767 96.24 71.0267 96.4997 71.0267 96.82V100.88C70.386 100.88 69.8667 100.361 69.8667 99.72V96.82Z" fill="white"/>
<path fill-rule="evenodd" clip-rule="evenodd" d="M133.667 103.973C136.656 103.973 139.08 101.55 139.08 98.5601C139.08 95.5704 136.656 93.1467 133.667 93.1467C130.677 93.1467 128.253 95.5704 128.253 98.5601C128.253 101.55 130.677 103.973 133.667 103.973Z" fill="white"/>
<path d="M132.12 96.4333C132.12 96.1129 132.38 95.8533 132.7 95.8533C133.02 95.8533 133.28 96.1129 133.28 96.4333V101.267C132.639 101.267 132.12 100.747 132.12 100.107V96.4333Z" fill="#4FBC87"/>
<path d="M134.053 96.4333C134.053 96.1129 134.313 95.8533 134.633 95.8533C134.954 95.8533 135.213 96.1129 135.213 96.4333V101.267C134.573 101.267 134.053 100.747 134.053 100.107V96.4333Z" fill="#4FBC87"/>
<path d="M21 118H96C101.523 118 106 122.477 106 128V139C106 144.523 101.523 149 96 149H31C25.4772 149 21 144.523 21 139V118Z" fill="#EFEEF4"/>
<path fill-rule="evenodd" clip-rule="evenodd" d="M10 132C13.866 132 17 128.866 17 125C17 121.134 13.866 118 10 118C6.13401 118 3 121.134 3 125C3 128.866 6.13401 132 10 132Z" fill="#D8D8D8"/>
<mask id="mask0_171_792" style="mask-type:luminance" maskUnits="userSpaceOnUse" x="3" y="118" width="14" height="14">
<path fill-rule="evenodd" clip-rule="evenodd" d="M10 132C13.866 132 17 128.866 17 125C17 121.134 13.866 118 10 118C6.13401 118 3 121.134 3 125C3 128.866 6.13401 132 10 132Z" fill="white"/>
</mask>
<g mask="url(#mask0_171_792)">
</g>
<path d="M71.1709 15.021C71.1709 15.051 71.1349 15.162 71.0629 15.354C70.9909 15.546 70.9039 15.771 70.8019 16.029C70.7059 16.281 70.6039 16.542 70.4959 16.812C70.3879 17.07 70.2949 17.289 70.2169 17.469L70.4689 16.749C70.2649 17.241 70.0309 17.73 69.7669 18.216V18.243C69.6409 18.243 69.5179 18.24 69.3979 18.234C69.2839 18.234 69.1639 18.225 69.0379 18.207C69.0019 18.111 68.9569 18.006 68.9029 17.892C68.8549 17.772 68.8039 17.652 68.7499 17.532C68.7019 17.412 68.6509 17.295 68.5969 17.181C68.5489 17.067 68.5039 16.962 68.4619 16.866L68.4259 16.92C68.2999 16.662 68.1619 16.401 68.0119 16.137C67.8679 15.873 67.7269 15.621 67.5889 15.381C67.4509 15.135 67.3249 14.913 67.2109 14.715C67.0969 14.511 67.0129 14.346 66.9589 14.22C66.8149 13.908 66.6919 13.587 66.5899 13.257C66.4879 12.927 66.3829 12.597 66.2749 12.267C66.3169 12.243 66.3529 12.222 66.3829 12.204C66.4189 12.186 66.4519 12.177 66.4819 12.177C66.5179 12.177 66.5509 12.204 66.5809 12.258C66.6169 12.312 66.6499 12.372 66.6799 12.438C66.7099 12.504 66.7339 12.57 66.7519 12.636C66.7759 12.702 66.7909 12.744 66.7969 12.762L66.8779 12.708C66.8479 12.594 66.8239 12.48 66.8059 12.366C66.7879 12.252 66.7789 12.135 66.7789 12.015V11.943C66.7789 11.901 66.7819 11.862 66.7879 11.826C66.7999 11.784 66.8149 11.748 66.8329 11.718C66.8509 11.688 66.8749 11.673 66.9049 11.673C66.9469 11.673 67.0219 11.763 67.1299 11.943C67.2379 12.123 67.3579 12.351 67.4899 12.627C67.6279 12.903 67.7719 13.209 67.9219 13.545C68.0779 13.875 68.2249 14.196 68.3629 14.508C68.5069 14.814 68.6329 15.087 68.7409 15.327C68.8489 15.567 68.9269 15.732 68.9749 15.822C69.0469 15.966 69.1159 16.113 69.1819 16.263C69.2539 16.407 69.3319 16.551 69.4159 16.695C69.6799 16.113 69.8959 15.513 70.0639 14.895L70.5679 13.041C70.5859 12.981 70.6129 12.855 70.6489 12.663C70.6849 12.471 70.7269 12.273 70.7749 12.069C70.8229 11.859 70.8739 11.673 70.9279 11.511C70.9819 11.349 71.0359 11.268 71.0899 11.268L71.1169 11.277C71.0209 11.691 70.9309 12.102 70.8469 12.51C70.7629 12.912 70.6699 13.317 70.5679 13.725C70.6819 13.329 70.7839 12.93 70.8739 12.528C70.9639 12.126 71.0659 11.727 71.1799 11.331L71.2609 11.385C71.2729 11.343 71.2909 11.286 71.3149 11.214C71.3449 11.136 71.3779 11.061 71.4139 10.989C71.4499 10.911 71.4889 10.845 71.5309 10.791C71.5789 10.737 71.6269 10.71 71.6749 10.71C71.7109 10.71 71.7409 10.731 71.7649 10.773C71.7949 10.815 71.8159 10.863 71.8279 10.917C71.8399 10.971 71.8489 11.025 71.8549 11.079C71.8609 11.133 71.8639 11.172 71.8639 11.196C71.8639 11.208 71.8549 11.235 71.8369 11.277C71.8249 11.313 71.8159 11.34 71.8099 11.358C71.6539 11.874 71.5129 12.393 71.3869 12.915C71.2669 13.437 71.1409 13.959 71.0089 14.481C70.8829 14.997 70.7389 15.51 70.5769 16.02C70.4209 16.518 70.2319 17.01 70.0099 17.496C70.2319 17.022 70.4239 16.536 70.5859 16.038C70.7539 15.528 70.9069 15.015 71.0449 14.499C71.1889 13.977 71.3239 13.455 71.4499 12.933C71.5819 12.411 71.7289 11.895 71.8909 11.385C71.8909 11.619 71.8729 11.85 71.8369 12.078C71.8009 12.306 71.7559 12.534 71.7019 12.762C71.6479 12.99 71.5879 13.218 71.5219 13.446C71.4559 13.668 71.3959 13.89 71.3419 14.112H71.2609C71.1229 14.754 70.9519 15.384 70.7479 16.002C70.8019 15.858 70.8589 15.714 70.9189 15.57C70.9789 15.426 71.0419 15.285 71.1079 15.147L71.1709 15.021ZM68.7949 18C68.7469 17.892 68.6929 17.757 68.6329 17.595C68.5729 17.427 68.5189 17.274 68.4709 17.136C68.5489 17.268 68.6179 17.409 68.6779 17.559C68.7379 17.703 68.7769 17.85 68.7949 18ZM70.5679 13.725C70.4479 14.187 70.3189 14.646 70.1809 15.102C70.0789 15.438 69.9619 15.771 69.8299 16.101C69.9679 15.777 70.0909 15.444 70.1989 15.102C70.3429 14.652 70.4659 14.193 70.5679 13.725ZM69.8839 18.288C69.7999 18.276 69.7159 18.27 69.6319 18.27H69.3799C69.4399 18.264 69.4969 18.261 69.5509 18.261H69.8569L70.0729 17.811H70.1089L69.8839 18.288ZM68.8939 18.27C68.8819 18.24 68.8669 18.201 68.8489 18.153C68.8369 18.111 68.8189 18.063 68.7949 18.009C68.8189 18.045 68.8579 18.087 68.9119 18.135C68.9659 18.189 69.0079 18.24 69.0379 18.288L68.8939 18.27ZM70.1089 17.802H70.0729C70.0849 17.778 70.1029 17.739 70.1269 17.685C70.1509 17.625 70.1809 17.556 70.2169 17.478L70.1089 17.802ZM74.2881 12.582C74.2941 12.612 74.3271 12.627 74.3871 12.627H74.4051C74.4411 12.627 74.4651 12.63 74.4771 12.636C74.7891 12.732 75.0981 12.873 75.4041 13.059C75.7161 13.239 75.9951 13.458 76.2411 13.716C76.4931 13.968 76.6941 14.256 76.8441 14.58C77.0001 14.904 77.0781 15.252 77.0781 15.624C77.0781 15.948 77.0151 16.26 76.8891 16.56C76.7631 16.86 76.5891 17.121 76.3671 17.343C76.5951 17.145 76.7751 16.899 76.9071 16.605C77.0451 16.305 77.1141 15.984 77.1141 15.642C77.1141 15.258 77.0331 14.901 76.8711 14.571C76.7091 14.235 76.5021 13.935 76.2501 13.671C75.9981 13.407 75.7161 13.182 75.4041 12.996C75.0981 12.804 74.7981 12.657 74.5041 12.555C74.7321 12.555 74.9631 12.606 75.1971 12.708C75.4371 12.81 75.6651 12.945 75.8811 13.113C76.0971 13.275 76.2951 13.464 76.4751 13.68C76.6611 13.89 76.8171 14.106 76.9431 14.328L76.8801 14.418C77.0001 14.598 77.0901 14.793 77.1501 15.003C77.2161 15.213 77.2491 15.429 77.2491 15.651C77.2491 16.077 77.1561 16.452 76.9701 16.776C76.7901 17.094 76.5591 17.361 76.2771 17.577C76.0011 17.787 75.6951 17.946 75.3591 18.054C75.0291 18.162 74.7171 18.216 74.4231 18.216C74.2551 18.216 74.0841 18.198 73.9101 18.162C73.7421 18.126 73.5711 18.066 73.3971 17.982V18.036C73.5651 18.132 73.7361 18.198 73.9101 18.234C74.0901 18.27 74.2671 18.288 74.4411 18.288C74.8731 18.288 75.2961 18.192 75.7101 18C76.1301 17.814 76.4841 17.55 76.7721 17.208C76.4961 17.562 76.1511 17.838 75.7371 18.036C75.3291 18.234 74.9031 18.333 74.4591 18.333C74.0031 18.333 73.6341 18.243 73.3521 18.063C73.0701 17.889 72.8481 17.673 72.6861 17.415C72.5301 17.157 72.4251 16.884 72.3711 16.596C72.3171 16.308 72.2901 16.05 72.2901 15.822C72.2901 15.516 72.3291 15.216 72.4071 14.922C72.4911 14.628 72.6171 14.358 72.7851 14.112C72.9531 13.866 73.1691 13.656 73.4331 13.482C73.6971 13.302 74.0151 13.176 74.3871 13.104L74.1261 13.041C74.0001 13.011 73.9101 12.975 73.8561 12.933C73.8021 12.891 73.7751 12.855 73.7751 12.825C73.7751 12.777 73.8261 12.726 73.9281 12.672C74.0361 12.612 74.1561 12.582 74.2881 12.582ZM73.8831 13.716C74.0451 13.656 74.2011 13.626 74.3511 13.626C74.5011 13.626 74.6151 13.65 74.6931 13.698C74.7771 13.74 74.8191 13.785 74.8191 13.833C74.8191 13.863 74.7831 13.896 74.7111 13.932C74.6451 13.968 74.5581 14.019 74.4501 14.085C74.3481 14.145 74.2341 14.223 74.1081 14.319C73.9881 14.415 73.8741 14.538 73.7661 14.688C73.6641 14.832 73.5771 15.009 73.5051 15.219C73.4391 15.429 73.4061 15.675 73.4061 15.957C73.4061 16.371 73.4991 16.683 73.6851 16.893C73.8711 17.103 74.1291 17.208 74.4591 17.208C74.6691 17.208 74.8821 17.172 75.0981 17.1C75.3201 17.028 75.5181 16.926 75.6921 16.794C75.8721 16.662 76.0161 16.5 76.1241 16.308C76.2381 16.116 76.2951 15.9 76.2951 15.66C76.2951 15.48 76.2621 15.3 76.1961 15.12C76.1361 14.94 76.0491 14.769 75.9351 14.607C75.8271 14.439 75.6951 14.283 75.5391 14.139C75.3891 13.995 75.2241 13.872 75.0441 13.77C74.8701 13.674 74.7261 13.602 74.6121 13.554C74.5041 13.5 74.4261 13.449 74.3781 13.401C74.3301 13.425 74.2611 13.455 74.1711 13.491C74.0871 13.521 73.9731 13.569 73.8291 13.635L73.8831 13.716ZM74.4861 13.293C74.7621 13.383 75.0261 13.518 75.2781 13.698C75.4941 13.86 75.6921 14.037 75.8721 14.229C75.6981 14.025 75.5091 13.842 75.3051 13.68C75.0711 13.488 74.8101 13.338 74.5221 13.23L74.4861 13.293ZM76.2321 16.362C76.1421 16.554 76.0161 16.725 75.8541 16.875C75.9621 16.803 76.0521 16.716 76.1241 16.614C76.2021 16.512 76.2651 16.41 76.3131 16.308C76.3611 16.206 76.3971 16.113 76.4211 16.029C76.4391 15.951 76.4541 15.888 76.4661 15.84C76.4001 15.996 76.3221 16.17 76.2321 16.362ZM76.8351 17.136C76.8291 17.148 76.8201 17.16 76.8081 17.172C76.8021 17.178 76.7961 17.181 76.7901 17.181C76.7841 17.181 76.7991 17.151 76.8351 17.091C76.8711 17.025 76.9131 16.95 76.9611 16.866C77.0151 16.776 77.0661 16.683 77.1141 16.587C77.1561 16.515 77.1861 16.452 77.2041 16.398C77.1201 16.656 76.9971 16.902 76.8351 17.136ZM77.3391 15.678C77.3391 15.774 77.3331 15.87 77.3211 15.966C77.3091 16.056 77.2881 16.14 77.2581 16.218C77.3001 16.068 77.3211 15.9 77.3211 15.714C77.3211 15.576 77.3091 15.441 77.2851 15.309C77.2671 15.195 77.2431 15.084 77.2131 14.976C77.2431 15.084 77.2701 15.192 77.2941 15.3C77.3241 15.42 77.3391 15.546 77.3391 15.678ZM74.4861 13.149L74.4051 13.113C74.3991 13.125 74.3901 13.137 74.3781 13.149C74.3661 13.161 74.3601 13.173 74.3601 13.185C74.3601 13.197 74.3661 13.215 74.3781 13.239C74.3961 13.257 74.4111 13.272 74.4231 13.284L74.4861 13.149ZM75.9261 14.292C75.9081 14.268 75.8901 14.247 75.8721 14.229C75.8901 14.253 75.9081 14.274 75.9261 14.292ZM77.2041 16.398C77.2101 16.386 77.2131 16.374 77.2131 16.362C77.2131 16.374 77.2101 16.386 77.2041 16.398ZM77.2221 16.344C77.2161 16.35 77.2131 16.356 77.2131 16.362C77.2131 16.356 77.2161 16.35 77.2221 16.344ZM78.5547 17.532C78.5787 17.364 78.5997 17.169 78.6177 16.947C78.6417 16.719 78.6627 16.491 78.6807 16.263C78.6987 16.035 78.7167 15.813 78.7347 15.597C78.7527 15.375 78.7707 15.183 78.7887 15.021C78.7587 15.183 78.7317 15.369 78.7077 15.579C78.6837 15.789 78.6597 16.005 78.6357 16.227C78.6117 16.449 78.5877 16.671 78.5637 16.893C78.5397 17.109 78.5187 17.304 78.5007 17.478C78.4107 17.418 78.3657 17.337 78.3657 17.235C78.3657 17.115 78.3687 17.016 78.3747 16.938C78.3807 16.854 78.3897 16.758 78.4017 16.65L78.5007 16.56C78.4947 16.53 78.4917 16.503 78.4917 16.479V16.389C78.4917 16.251 78.5067 16.095 78.5367 15.921C78.5667 15.741 78.5997 15.561 78.6357 15.381C78.6777 15.195 78.7137 15.018 78.7437 14.85C78.7737 14.676 78.7887 14.526 78.7887 14.4L78.6807 14.373C78.6687 14.517 78.6507 14.682 78.6267 14.868C78.6027 15.048 78.5757 15.237 78.5457 15.435C78.5217 15.627 78.4977 15.819 78.4737 16.011C78.4617 16.113 78.4497 16.209 78.4377 16.299C78.4497 16.131 78.4647 15.951 78.4827 15.759C78.5127 15.483 78.5427 15.21 78.5727 14.94C78.6087 14.664 78.6417 14.394 78.6717 14.13C78.7017 13.866 78.7317 13.623 78.7617 13.401C78.7617 13.311 78.7827 13.215 78.8247 13.113C78.8727 13.005 78.9057 12.894 78.9237 12.78C78.9597 12.792 78.9897 12.798 79.0137 12.798H79.0767C79.1367 12.798 79.1757 12.813 79.1937 12.843C79.2117 12.867 79.2207 12.903 79.2207 12.951V12.996L79.3017 13.023C79.3497 12.933 79.4067 12.861 79.4727 12.807C79.5387 12.753 79.6047 12.726 79.6707 12.726C79.8147 12.726 79.8867 12.879 79.8867 13.185C79.8867 13.347 79.8687 13.521 79.8327 13.707C79.8027 13.887 79.7877 14.064 79.7877 14.238V14.355C79.7877 14.547 79.7667 14.757 79.7247 14.985C79.6827 15.207 79.6347 15.435 79.5807 15.669C79.5327 15.897 79.4877 16.119 79.4457 16.335C79.4037 16.551 79.3827 16.749 79.3827 16.929C79.3827 16.971 79.3857 17.016 79.3917 17.064C79.3977 17.112 79.4007 17.157 79.4007 17.199C79.4007 17.289 79.3827 17.346 79.3467 17.37C79.3167 17.388 79.2777 17.397 79.2297 17.397C79.2297 17.319 79.2267 17.223 79.2207 17.109C79.2147 16.995 79.2117 16.893 79.2117 16.803C79.1997 16.869 79.1937 16.959 79.1937 17.073C79.1937 17.187 79.1877 17.295 79.1757 17.397H79.0407V17.505C78.9867 17.601 78.9147 17.649 78.8247 17.649C78.7827 17.649 78.7347 17.637 78.6807 17.613C78.6267 17.589 78.5847 17.562 78.5547 17.532ZM80.4087 10.62C80.3067 10.68 80.2137 10.758 80.1297 10.854C80.0457 10.95 79.9587 11.043 79.8687 11.133C79.9227 11.097 79.9707 11.058 80.0127 11.016C80.0547 10.974 80.0967 10.932 80.1387 10.89C80.1867 10.848 80.2347 10.806 80.2827 10.764C80.3367 10.722 80.3967 10.683 80.4627 10.647C80.4807 10.671 80.4957 10.692 80.5077 10.71C80.5257 10.728 80.5347 10.746 80.5347 10.764L80.3277 10.971C80.3277 10.959 80.3157 10.947 80.2917 10.935C80.2737 10.923 80.2587 10.917 80.2467 10.917C80.2287 10.977 80.1987 11.025 80.1567 11.061C80.1147 11.097 80.0727 11.13 80.0307 11.16C79.9887 11.19 79.9467 11.223 79.9047 11.259C79.8627 11.295 79.8327 11.343 79.8147 11.403V11.421C79.8147 11.427 79.8237 11.43 79.8417 11.43L80.2917 11.007L80.1207 11.178C80.0367 11.262 79.9467 11.349 79.8507 11.439C79.7607 11.523 79.6737 11.598 79.5897 11.664C79.5117 11.73 79.4637 11.763 79.4457 11.763L79.4367 11.754C79.3947 11.742 79.3497 11.736 79.3017 11.736C79.2597 11.736 79.2147 11.733 79.1667 11.727C79.1667 11.679 79.1577 11.628 79.1397 11.574C79.1277 11.52 79.1217 11.478 79.1217 11.448C79.1217 11.418 79.1367 11.403 79.1667 11.403C79.1667 11.385 79.1547 11.358 79.1307 11.322C79.1127 11.28 79.0917 11.235 79.0677 11.187C79.0437 11.133 79.0197 11.079 78.9957 11.025C78.9777 10.965 78.9687 10.905 78.9687 10.845C78.9687 10.785 78.9927 10.728 79.0407 10.674C79.0947 10.614 79.1547 10.563 79.2207 10.521C79.2927 10.479 79.3617 10.443 79.4277 10.413C79.4937 10.383 79.5417 10.362 79.5717 10.35C79.5957 10.35 79.6047 10.338 79.5987 10.314C79.5927 10.284 79.6017 10.269 79.6257 10.269L79.7877 10.323C79.7757 10.353 79.7367 10.404 79.6707 10.476C79.6107 10.542 79.5657 10.59 79.5357 10.62C79.5777 10.59 79.6257 10.545 79.6797 10.485C79.7397 10.425 79.7847 10.38 79.8147 10.35C79.8447 10.362 79.8717 10.374 79.8957 10.386C79.9197 10.398 79.9377 10.404 79.9497 10.404L79.9767 10.377C80.0187 10.377 80.0637 10.386 80.1117 10.404C80.1657 10.422 80.2137 10.443 80.2557 10.467C80.2977 10.491 80.3337 10.518 80.3637 10.548C80.3937 10.578 80.4087 10.602 80.4087 10.62ZM78.4197 16.515C78.4257 16.449 78.4317 16.383 78.4377 16.317C78.4317 16.389 78.4257 16.455 78.4197 16.515ZM86.1833 11.43C86.1953 11.604 86.2043 11.775 86.2103 11.943C86.2163 12.105 86.2193 12.273 86.2193 12.447C86.2193 12.807 86.2073 13.17 86.1833 13.536C86.1653 13.896 86.1413 14.262 86.1113 14.634C86.0813 15.006 86.0513 15.387 86.0213 15.777C85.9913 16.167 85.9643 16.572 85.9403 16.992C85.9403 17.058 85.9373 17.127 85.9313 17.199C85.9313 17.265 85.9253 17.34 85.9133 17.424V17.532C85.9133 17.55 85.9073 17.574 85.8953 17.604C85.8833 17.634 85.8713 17.655 85.8593 17.667C85.7813 17.757 85.7093 17.826 85.6433 17.874C85.5833 17.916 85.5263 17.949 85.4723 17.973C85.4183 17.991 85.3673 18 85.3193 18C85.2713 18.006 85.2233 18.012 85.1753 18.018H85.2293C85.2473 18.018 85.2803 18.015 85.3283 18.009C85.3823 18.003 85.4393 17.994 85.4993 17.982C85.5653 17.964 85.6253 17.943 85.6793 17.919C85.7393 17.889 85.7813 17.85 85.8053 17.802L85.8863 17.64C85.9223 17.574 85.9433 17.505 85.9493 17.433C85.9613 17.355 85.9673 17.28 85.9673 17.208C85.9733 17.13 85.9763 17.055 85.9763 16.983C85.9763 16.911 85.9823 16.842 85.9943 16.776C86.0123 16.398 86.0363 16.02 86.0663 15.642C86.1023 15.264 86.1353 14.883 86.1653 14.499C86.1953 14.115 86.2223 13.728 86.2463 13.338C86.2703 12.942 86.2823 12.54 86.2823 12.132C86.2823 12.006 86.2793 11.886 86.2733 11.772C86.2733 11.652 86.2703 11.538 86.2643 11.43C86.2823 11.454 86.3003 11.493 86.3183 11.547C86.3423 11.595 86.3603 11.673 86.3723 11.781C86.4023 11.847 86.4203 11.919 86.4263 11.997C86.4323 12.075 86.4413 12.156 86.4533 12.24C86.4533 12.648 86.4383 13.044 86.4083 13.428C86.3783 13.806 86.3483 14.184 86.3183 14.562L86.2373 14.589L86.1563 16.128C86.1563 16.56 86.1353 16.917 86.0933 17.199C86.0573 17.475 86.0243 17.658 85.9943 17.748V17.775C85.9043 17.865 85.8263 17.934 85.7603 17.982C85.7003 18.024 85.6433 18.057 85.5893 18.081C85.5353 18.105 85.4843 18.117 85.4363 18.117C85.3943 18.123 85.3493 18.126 85.3013 18.126H84.7253C84.5633 18.108 84.3893 18.099 84.2033 18.099C84.0173 18.105 83.8223 18.087 83.6183 18.045C83.4143 18.003 83.2043 17.916 82.9883 17.784C82.7783 17.652 82.5653 17.442 82.3493 17.154C82.3493 17.166 82.3463 17.175 82.3403 17.181C82.3343 17.187 82.3283 17.196 82.3223 17.208C82.5203 17.478 82.7573 17.7 83.0333 17.874C83.3153 18.048 83.6183 18.15 83.9423 18.18H84.6983C84.7703 18.192 84.8423 18.198 84.9143 18.198C84.9923 18.204 85.0763 18.207 85.1663 18.207C85.2563 18.207 85.3733 18.195 85.5173 18.171C85.6673 18.147 85.8083 18.069 85.9403 17.937C85.9643 17.907 85.9793 17.886 85.9853 17.874C85.9973 17.856 86.0093 17.832 86.0213 17.802L86.0483 17.748C86.0783 17.694 86.0993 17.64 86.1113 17.586C86.1293 17.526 86.1443 17.469 86.1563 17.415C86.1563 17.481 86.1503 17.538 86.1383 17.586C86.1323 17.634 86.1113 17.706 86.0753 17.802L86.0483 17.829L85.9403 17.991C85.8863 18.045 85.8263 18.087 85.7603 18.117C85.6943 18.147 85.6313 18.168 85.5713 18.18C85.5113 18.198 85.4543 18.21 85.4003 18.216C85.3523 18.222 85.3163 18.228 85.2923 18.234H84.9953C84.9173 18.234 84.8513 18.231 84.7973 18.225C84.7493 18.225 84.7103 18.222 84.6803 18.216C84.6563 18.216 84.6353 18.213 84.6173 18.207H84.3473C84.2933 18.207 84.2393 18.207 84.1853 18.207C84.1313 18.213 84.0743 18.216 84.0143 18.216C83.7323 18.216 83.4563 18.147 83.1863 18.009C82.9223 17.877 82.6763 17.688 82.4483 17.442C82.2263 17.196 82.0283 16.905 81.8543 16.569C81.6803 16.233 81.5483 15.861 81.4583 15.453C81.4583 15.387 81.4523 15.324 81.4403 15.264C81.4343 15.204 81.4313 15.141 81.4313 15.075C81.4313 14.853 81.4643 14.628 81.5303 14.4C81.6023 14.166 81.7283 13.956 81.9083 13.77C82.0883 13.584 82.3313 13.434 82.6373 13.32C82.9433 13.2 83.3303 13.14 83.7983 13.14C84.0143 13.14 84.2243 13.146 84.4283 13.158C84.6323 13.164 84.8393 13.173 85.0493 13.185C85.0253 13.203 85.0133 13.224 85.0133 13.248C85.0133 13.278 85.0193 13.305 85.0313 13.329C85.0433 13.347 85.0493 13.368 85.0493 13.392C85.0493 13.422 85.0253 13.449 84.9773 13.473C84.9353 13.491 84.8423 13.5 84.6983 13.5C84.6503 13.5 84.5933 13.5 84.5273 13.5C84.4673 13.494 84.3983 13.488 84.3203 13.482V13.563C84.6083 13.605 84.8393 13.662 85.0133 13.734C85.1933 13.8 85.3043 13.86 85.3463 13.914L85.3643 13.932L85.4003 13.536C85.4183 13.374 85.4273 13.191 85.4273 12.987C85.4273 12.777 85.4213 12.57 85.4093 12.366C85.3973 12.162 85.3913 12.003 85.3913 11.889C85.3913 11.745 85.4003 11.649 85.4183 11.601C85.4363 11.553 85.4603 11.529 85.4903 11.529C85.5143 11.529 85.5323 11.58 85.5443 11.682C85.5623 11.784 85.5743 11.901 85.5803 12.033C85.5923 12.159 85.5983 12.285 85.5983 12.411V12.672C85.5983 12.846 85.5953 13.023 85.5893 13.203C85.5833 13.377 85.5743 13.551 85.5623 13.725C85.5803 13.497 85.5953 13.275 85.6073 13.059C85.6193 12.837 85.6253 12.612 85.6253 12.384C85.6253 12.246 85.6223 12.111 85.6163 11.979C85.6103 11.841 85.6013 11.703 85.5893 11.565C85.6253 11.601 85.6523 11.619 85.6703 11.619C85.6943 11.619 85.7123 11.601 85.7243 11.565C85.7183 11.517 85.7123 11.466 85.7063 11.412C85.7003 11.364 85.6973 11.316 85.6973 11.268V11.133C85.7273 11.061 85.7663 11.007 85.8143 10.971C85.8623 10.929 85.9043 10.908 85.9403 10.908C86.0423 10.908 86.1323 11.019 86.2103 11.241L86.1833 11.43ZM84.7253 14.13C84.5273 14.142 84.3023 14.154 84.0503 14.166C83.8043 14.178 83.5703 14.211 83.3483 14.265C83.1263 14.313 82.9343 14.388 82.7723 14.49C82.6163 14.592 82.5293 14.733 82.5113 14.913C82.5113 15.111 82.5533 15.333 82.6373 15.579C82.7213 15.825 82.8323 16.059 82.9703 16.281C83.1083 16.497 83.2643 16.683 83.4383 16.839C83.6183 16.995 83.8043 17.082 83.9963 17.1H84.5093C84.5393 17.1 84.5603 17.103 84.5723 17.109C84.5903 17.109 84.6143 17.115 84.6443 17.127H84.8603C84.9503 17.145 85.0403 17.154 85.1303 17.154C85.1303 16.65 85.1513 16.134 85.1933 15.606C85.2413 15.072 85.2923 14.55 85.3463 14.04C85.2683 14.1 85.0613 14.13 84.7253 14.13ZM85.3733 15.993C85.3733 16.059 85.3673 16.128 85.3553 16.2C85.3493 16.266 85.3463 16.341 85.3463 16.425C85.4123 16.089 85.4513 15.735 85.4633 15.363C85.4753 14.991 85.4903 14.634 85.5083 14.292C85.4783 14.58 85.4543 14.865 85.4363 15.147C85.4243 15.423 85.4033 15.705 85.3733 15.993ZM86.1563 16.965C86.1563 16.899 86.1593 16.833 86.1653 16.767C86.1713 16.695 86.1803 16.62 86.1923 16.542C86.1863 16.722 86.1833 16.893 86.1833 17.055C86.1833 17.211 86.1743 17.322 86.1563 17.388C86.1563 17.358 86.1563 17.331 86.1563 17.307C86.1623 17.277 86.1653 17.247 86.1653 17.217C86.1653 17.169 86.1623 17.124 86.1563 17.082C86.1563 17.04 86.1563 17.001 86.1563 16.965ZM86.2913 15.507C86.2793 15.537 86.2703 15.573 86.2643 15.615C86.2583 15.651 86.2493 15.69 86.2373 15.732L86.2733 15.183L86.2913 15.507ZM86.2103 16.209C86.2103 16.263 86.2073 16.317 86.2013 16.371C86.2013 16.425 86.1983 16.476 86.1923 16.524C86.1923 16.404 86.1953 16.284 86.2013 16.164C86.2073 16.038 86.2163 15.924 86.2283 15.822L86.2103 16.209ZM85.3193 16.767C85.3253 16.743 85.3283 16.719 85.3283 16.695C85.3283 16.671 85.3343 16.644 85.3463 16.614V16.515C85.3403 16.527 85.3373 16.539 85.3373 16.551C85.3373 16.557 85.3343 16.563 85.3283 16.569L85.3193 16.587V16.767ZM85.2923 17.199C85.2983 17.145 85.3043 17.091 85.3103 17.037C85.3163 16.977 85.3193 16.917 85.3193 16.857V16.83L85.2833 17.181L85.2923 17.199Z" fill="white"/>
<path fill-rule="evenodd" clip-rule="evenodd" d="M10 55C13.866 55 17 51.866 17 48C17 44.134 13.866 41 10 41C6.13401 41 3 44.134 3 48C3 51.866 6.13401 55 10 55Z" fill="#D8D8D8"/>
<mask id="mask1_171_792" style="mask-type:luminance" maskUnits="userSpaceOnUse" x="3" y="41" width="14" height="14">
<path fill-rule="evenodd" clip-rule="evenodd" d="M10 55C13.866 55 17 51.866 17 48C17 44.134 13.866 41 10 41C6.13401 41 3 44.134 3 48C3 51.866 6.13401 55 10 55Z" fill="white"/>
</mask>
<g mask="url(#mask1_171_792)">
</g>
<rect x="-0.5" y="-0.5" width="154" height="200" rx="6.5" stroke="#47A98C"/>
<defs>
<linearGradient id="paint0_linear_171_792" x1="-65.0427" y1="15.19" x2="-53.9857" y2="68.7847" gradientUnits="userSpaceOnUse">
<stop stop-color="#58D582"/>
<stop offset="1" stop-color="#47A98C"/>
</linearGradient>
</defs>
</svg>
