<svg width="115" height="128" viewBox="0 0 115 128" fill="none" xmlns="http://www.w3.org/2000/svg">
<path fill-rule="evenodd" clip-rule="evenodd" d="M59.7225 106.314C88.6458 105.304 110.667 81.6861 109.684 53.5309C108.701 25.3758 84.4567 3.37046 55.5334 4.38049C28.2358 5.33374 6.52665 26.4472 4.99904 52.4869C4.60851 54.7813 4.61804 57.4139 5.08763 60.422C5.16017 60.8906 5.2376 61.3562 5.31868 61.819C6.02747 67.3513 7.37517 73.9476 9.74024 78.7645C23.869 111.392 59.7214 124.307 59.7214 124.307L59.0938 106.336C59.2713 106.332 59.5447 106.321 59.7225 106.314Z" fill="url(#paint0_linear_144_639)"/>
<path d="M5.99732 52.5455L5.9941 52.6005L5.98486 52.6548C5.61594 54.8221 5.61921 57.3438 6.07566 60.2678L6.07586 60.269C6.14727 60.7303 6.22359 61.1893 6.30367 61.6464L6.30765 61.6691L6.31057 61.6919C7.01563 67.1951 8.3472 73.6583 10.6379 78.3237L10.6484 78.3452L10.6579 78.3671C17.62 94.4447 29.9514 105.698 40.592 112.945C45.9073 116.565 50.7853 119.175 54.3317 120.878C56.1044 121.73 57.543 122.354 58.5354 122.765C58.5808 122.783 58.6253 122.802 58.6688 122.82L58.0944 106.371L58.0592 105.362L59.0687 105.337C59.184 105.334 59.3383 105.328 59.4847 105.323C59.556 105.32 59.6254 105.317 59.6876 105.315C88.0686 104.324 109.648 81.1594 108.684 53.5658C107.721 25.9879 83.9652 4.38824 55.5683 5.37988C28.7693 6.31572 7.49371 27.038 5.99732 52.5455Z" stroke="#F7F7FC" stroke-opacity="0.5" stroke-width="2"/>
<path d="M36.9787 56.0835C36.9787 56.2035 36.8347 56.6475 36.5467 57.4155C36.2587 58.1835 35.9107 59.0835 35.5027 60.1155C35.1187 61.1235 34.7107 62.1675 34.2787 63.2475C33.8467 64.2795 33.4747 65.1555 33.1627 65.8755L34.1707 62.9955C33.3547 64.9635 32.4187 66.9195 31.3627 68.8635V68.9715C30.8587 68.9715 30.3667 68.9595 29.8867 68.9355C29.4307 68.9355 28.9507 68.8995 28.4467 68.8275C28.3027 68.4435 28.1227 68.0235 27.9067 67.5675C27.7147 67.0875 27.5107 66.6075 27.2947 66.1275C27.1027 65.6475 26.8987 65.1795 26.6827 64.7235C26.4907 64.2675 26.3107 63.8475 26.1427 63.4635L25.9987 63.6795C25.4947 62.6475 24.9427 61.6035 24.3427 60.5475C23.7667 59.4915 23.2027 58.4835 22.6507 57.5235C22.0987 56.5395 21.5947 55.6515 21.1387 54.8595C20.6827 54.0435 20.3467 53.3835 20.1307 52.8795C19.5547 51.6315 19.0627 50.3475 18.6547 49.0275C18.2467 47.7075 17.8267 46.3875 17.3947 45.0675C17.5627 44.9715 17.7067 44.8875 17.8267 44.8155C17.9707 44.7435 18.1027 44.7075 18.2227 44.7075C18.3667 44.7075 18.4987 44.8155 18.6187 45.0315C18.7627 45.2475 18.8947 45.4875 19.0147 45.7515C19.1347 46.0155 19.2307 46.2795 19.3027 46.5435C19.3987 46.8075 19.4587 46.9755 19.4827 47.0475L19.8067 46.8315C19.6867 46.3755 19.5907 45.9195 19.5187 45.4635C19.4467 45.0075 19.4107 44.5395 19.4107 44.0595V43.7715C19.4107 43.6035 19.4227 43.4475 19.4467 43.3035C19.4947 43.1355 19.5547 42.9915 19.6267 42.8715C19.6987 42.7515 19.7947 42.6915 19.9147 42.6915C20.0827 42.6915 20.3827 43.0515 20.8147 43.7715C21.2467 44.4915 21.7267 45.4035 22.2547 46.5075C22.8067 47.6115 23.3827 48.8355 23.9827 50.1795C24.6067 51.4995 25.1947 52.7835 25.7467 54.0315C26.3227 55.2555 26.8267 56.3475 27.2587 57.3075C27.6907 58.2675 28.0027 58.9275 28.1947 59.2875C28.4827 59.8635 28.7587 60.4515 29.0227 61.0515C29.3107 61.6275 29.6227 62.2035 29.9587 62.7795C31.0147 60.4515 31.8787 58.0515 32.5507 55.5795L34.5667 48.1635C34.6387 47.9235 34.7467 47.4195 34.8907 46.6515C35.0347 45.8835 35.2027 45.0915 35.3947 44.2755C35.5867 43.4355 35.7907 42.6915 36.0067 42.0435C36.2227 41.3955 36.4387 41.0715 36.6547 41.0715L36.7627 41.1075C36.3787 42.7635 36.0187 44.4075 35.6827 46.0395C35.3467 47.6475 34.9747 49.2675 34.5667 50.8995C35.0227 49.3155 35.4307 47.7195 35.7907 46.1115C36.1507 44.5035 36.5587 42.9075 37.0147 41.3235L37.3387 41.5395C37.3867 41.3715 37.4587 41.1435 37.5547 40.8555C37.6747 40.5435 37.8067 40.2435 37.9507 39.9555C38.0947 39.6435 38.2507 39.3795 38.4187 39.1635C38.6107 38.9475 38.8027 38.8395 38.9947 38.8395C39.1387 38.8395 39.2587 38.9235 39.3547 39.0915C39.4747 39.2595 39.5587 39.4515 39.6067 39.6675C39.6547 39.8835 39.6907 40.0995 39.7147 40.3155C39.7387 40.5315 39.7507 40.6875 39.7507 40.7835C39.7507 40.8315 39.7147 40.9395 39.6427 41.1075C39.5947 41.2515 39.5587 41.3595 39.5347 41.4315C38.9107 43.4955 38.3467 45.5715 37.8427 47.6595C37.3627 49.7475 36.8587 51.8355 36.3307 53.9235C35.8267 55.9875 35.2507 58.0395 34.6027 60.0795C33.9787 62.0715 33.2227 64.0395 32.3347 65.9835C33.2227 64.0875 33.9907 62.1435 34.6387 60.1515C35.3107 58.1115 35.9227 56.0595 36.4747 53.9955C37.0507 51.9075 37.5907 49.8195 38.0947 47.7315C38.6227 45.6435 39.2107 43.5795 39.8587 41.5395C39.8587 42.4755 39.7867 43.3995 39.6427 44.3115C39.4987 45.2235 39.3187 46.1355 39.1027 47.0475C38.8867 47.9595 38.6467 48.8715 38.3827 49.7835C38.1187 50.6715 37.8787 51.5595 37.6627 52.4475H37.3387C36.7867 55.0155 36.1027 57.5355 35.2867 60.0075C35.5027 59.4315 35.7307 58.8555 35.9707 58.2795C36.2107 57.7035 36.4627 57.1395 36.7267 56.5875L36.9787 56.0835ZM27.4747 67.9995C27.2827 67.5675 27.0667 67.0275 26.8267 66.3795C26.5867 65.7075 26.3707 65.0955 26.1787 64.5435C26.4907 65.0715 26.7667 65.6355 27.0067 66.2355C27.2467 66.8115 27.4027 67.3995 27.4747 67.9995ZM34.5667 50.8995C34.0867 52.7475 33.5707 54.5835 33.0187 56.4075C32.6107 57.7515 32.1427 59.0835 31.6147 60.4035C32.1667 59.1075 32.6587 57.7755 33.0907 56.4075C33.6667 54.6075 34.1587 52.7715 34.5667 50.8995ZM31.8307 69.1515C31.4947 69.1035 31.1587 69.0795 30.8227 69.0795H29.8147C30.0547 69.0555 30.2827 69.0435 30.4987 69.0435H31.7227L32.5867 67.2435H32.7307L31.8307 69.1515ZM27.8707 69.0795C27.8227 68.9595 27.7627 68.8035 27.6907 68.6115C27.6427 68.4435 27.5707 68.2515 27.4747 68.0355C27.5707 68.1795 27.7267 68.3475 27.9427 68.5395C28.1587 68.7555 28.3267 68.9595 28.4467 69.1515L27.8707 69.0795ZM32.7307 67.2075H32.5867C32.6347 67.1115 32.7067 66.9555 32.8027 66.7395C32.8987 66.4995 33.0187 66.2235 33.1627 65.9115L32.7307 67.2075ZM48.9173 46.3275C48.9413 46.4475 49.0733 46.5075 49.3133 46.5075H49.3853C49.5293 46.5075 49.6253 46.5195 49.6733 46.5435C50.9213 46.9275 52.1573 47.4915 53.3813 48.2355C54.6293 48.9555 55.7453 49.8315 56.7293 50.8635C57.7373 51.8715 58.5413 53.0235 59.1413 54.3195C59.7653 55.6155 60.0773 57.0075 60.0773 58.4955C60.0773 59.7915 59.8253 61.0395 59.3213 62.2395C58.8173 63.4395 58.1213 64.4835 57.2333 65.3715C58.1453 64.5795 58.8653 63.5955 59.3933 62.4195C59.9453 61.2195 60.2213 59.9355 60.2213 58.5675C60.2213 57.0315 59.8973 55.6035 59.2493 54.2835C58.6013 52.9395 57.7733 51.7395 56.7653 50.6835C55.7573 49.6275 54.6293 48.7275 53.3813 47.9835C52.1573 47.2155 50.9573 46.6275 49.7813 46.2195C50.6933 46.2195 51.6173 46.4235 52.5533 46.8315C53.5133 47.2395 54.4253 47.7795 55.2893 48.4515C56.1533 49.0995 56.9453 49.8555 57.6653 50.7195C58.4093 51.5595 59.0333 52.4235 59.5373 53.3115L59.2853 53.6715C59.7653 54.3915 60.1253 55.1715 60.3653 56.0115C60.6293 56.8515 60.7613 57.7155 60.7613 58.6035C60.7613 60.3075 60.3893 61.8075 59.6453 63.1035C58.9253 64.3755 58.0013 65.4435 56.8733 66.3075C55.7693 67.1475 54.5453 67.7835 53.2013 68.2155C51.8813 68.6475 50.6333 68.8635 49.4573 68.8635C48.7853 68.8635 48.1013 68.7915 47.4053 68.6475C46.7333 68.5035 46.0493 68.2635 45.3533 67.9275V68.1435C46.0253 68.5275 46.7093 68.7915 47.4053 68.9355C48.1253 69.0795 48.8333 69.1515 49.5293 69.1515C51.2573 69.1515 52.9493 68.7675 54.6053 67.9995C56.2853 67.2555 57.7013 66.1995 58.8533 64.8315C57.7493 66.2475 56.3693 67.3515 54.7133 68.1435C53.0813 68.9355 51.3773 69.3315 49.6013 69.3315C47.7773 69.3315 46.3013 68.9715 45.1733 68.2515C44.0453 67.5555 43.1573 66.6915 42.5093 65.6595C41.8853 64.6275 41.4653 63.5355 41.2493 62.3835C41.0333 61.2315 40.9253 60.1995 40.9253 59.2875C40.9253 58.0635 41.0813 56.8635 41.3933 55.6875C41.7293 54.5115 42.2333 53.4315 42.9053 52.4475C43.5773 51.4635 44.4413 50.6235 45.4973 49.9275C46.5533 49.2075 47.8253 48.7035 49.3133 48.4155L48.2693 48.1635C47.7653 48.0435 47.4053 47.8995 47.1893 47.7315C46.9733 47.5635 46.8653 47.4195 46.8653 47.2995C46.8653 47.1075 47.0693 46.9035 47.4773 46.6875C47.9093 46.4475 48.3893 46.3275 48.9173 46.3275ZM47.2973 50.8635C47.9453 50.6235 48.5693 50.5035 49.1693 50.5035C49.7693 50.5035 50.2253 50.5995 50.5373 50.7915C50.8733 50.9595 51.0413 51.1395 51.0413 51.3315C51.0413 51.4515 50.8973 51.5835 50.6093 51.7275C50.3453 51.8715 49.9973 52.0755 49.5653 52.3395C49.1573 52.5795 48.7013 52.8915 48.1973 53.2755C47.7173 53.6595 47.2613 54.1515 46.8293 54.7515C46.4213 55.3275 46.0733 56.0355 45.7853 56.8755C45.5213 57.7155 45.3893 58.6995 45.3893 59.8275C45.3893 61.4835 45.7613 62.7315 46.5053 63.5715C47.2493 64.4115 48.2813 64.8315 49.6013 64.8315C50.4413 64.8315 51.2933 64.6875 52.1573 64.3995C53.0453 64.1115 53.8373 63.7035 54.5333 63.1755C55.2533 62.6475 55.8293 61.9995 56.2613 61.2315C56.7173 60.4635 56.9453 59.5995 56.9453 58.6395C56.9453 57.9195 56.8133 57.1995 56.5493 56.4795C56.3093 55.7595 55.9613 55.0755 55.5053 54.4275C55.0733 53.7555 54.5453 53.1315 53.9213 52.5555C53.3213 51.9795 52.6613 51.4875 51.9413 51.0795C51.2453 50.6955 50.6693 50.4075 50.2133 50.2155C49.7813 49.9995 49.4693 49.7955 49.2773 49.6035C49.0853 49.6995 48.8093 49.8195 48.4493 49.9635C48.1133 50.0835 47.6573 50.2755 47.0813 50.5395L47.2973 50.8635ZM49.7093 49.1715C50.8133 49.5315 51.8693 50.0715 52.8773 50.7915C53.7413 51.4395 54.5333 52.1475 55.2533 52.9155C54.5573 52.0995 53.8013 51.3675 52.9853 50.7195C52.0493 49.9515 51.0053 49.3515 49.8533 48.9195L49.7093 49.1715ZM56.6933 61.4475C56.3333 62.2155 55.8293 62.8995 55.1813 63.4995C55.6133 63.2115 55.9733 62.8635 56.2613 62.4555C56.5733 62.0475 56.8253 61.6395 57.0173 61.2315C57.2093 60.8235 57.3533 60.4515 57.4493 60.1155C57.5213 59.8035 57.5813 59.5515 57.6293 59.3595C57.3653 59.9835 57.0533 60.6795 56.6933 61.4475ZM59.1053 64.5435C59.0813 64.5915 59.0453 64.6395 58.9973 64.6875C58.9733 64.7115 58.9493 64.7235 58.9253 64.7235C58.9013 64.7235 58.9613 64.6035 59.1053 64.3635C59.2493 64.0995 59.4173 63.7995 59.6093 63.4635C59.8253 63.1035 60.0293 62.7315 60.2213 62.3475C60.3893 62.0595 60.5093 61.8075 60.5813 61.5915C60.2453 62.6235 59.7533 63.6075 59.1053 64.5435ZM61.1213 58.7115C61.1213 59.0955 61.0973 59.4795 61.0493 59.8635C61.0013 60.2235 60.9173 60.5595 60.7973 60.8715C60.9653 60.2715 61.0493 59.5995 61.0493 58.8555C61.0493 58.3035 61.0013 57.7635 60.9053 57.2355C60.8333 56.7795 60.7373 56.3355 60.6173 55.9035C60.7373 56.3355 60.8453 56.7675 60.9413 57.1995C61.0613 57.6795 61.1213 58.1835 61.1213 58.7115ZM49.7093 48.5955L49.3853 48.4515C49.3613 48.4995 49.3253 48.5475 49.2773 48.5955C49.2293 48.6435 49.2053 48.6915 49.2053 48.7395C49.2053 48.7875 49.2293 48.8595 49.2773 48.9555C49.3493 49.0275 49.4093 49.0875 49.4573 49.1355L49.7093 48.5955ZM55.4693 53.1675C55.3973 53.0715 55.3253 52.9875 55.2533 52.9155C55.3253 53.0115 55.3973 53.0955 55.4693 53.1675ZM60.5813 61.5915C60.6053 61.5435 60.6173 61.4955 60.6173 61.4475C60.6173 61.4955 60.6053 61.5435 60.5813 61.5915ZM60.6533 61.3755C60.6293 61.3995 60.6173 61.4235 60.6173 61.4475C60.6173 61.4235 60.6293 61.3995 60.6533 61.3755ZM65.4538 66.1275C65.5498 65.4555 65.6338 64.6755 65.7058 63.7875C65.8018 62.8755 65.8858 61.9635 65.9578 61.0515C66.0298 60.1395 66.1018 59.2515 66.1738 58.3875C66.2458 57.4995 66.3178 56.7315 66.3898 56.0835C66.2698 56.7315 66.1618 57.4755 66.0658 58.3155C65.9698 59.1555 65.8738 60.0195 65.7778 60.9075C65.6818 61.7955 65.5858 62.6835 65.4898 63.5715C65.3938 64.4355 65.3098 65.2155 65.2378 65.9115C64.8778 65.6715 64.6978 65.3475 64.6978 64.9395C64.6978 64.4595 64.7098 64.0635 64.7338 63.7515C64.7578 63.4155 64.7938 63.0315 64.8418 62.5995L65.2378 62.2395C65.2138 62.1195 65.2018 62.0115 65.2018 61.9155V61.5555C65.2018 61.0035 65.2618 60.3795 65.3818 59.6835C65.5018 58.9635 65.6338 58.2435 65.7778 57.5235C65.9458 56.7795 66.0898 56.0715 66.2098 55.3995C66.3298 54.7035 66.3898 54.1035 66.3898 53.5995L65.9578 53.4915C65.9098 54.0675 65.8378 54.7275 65.7418 55.4715C65.6458 56.1915 65.5378 56.9475 65.4178 57.7395C65.3218 58.5075 65.2258 59.2755 65.1298 60.0435C65.0818 60.4515 65.0338 60.8355 64.9858 61.1955C65.0338 60.5235 65.0938 59.8035 65.1658 59.0355C65.2858 57.9315 65.4058 56.8395 65.5258 55.7595C65.6698 54.6555 65.8018 53.5755 65.9218 52.5195C66.0418 51.4635 66.1618 50.4915 66.2818 49.6035C66.2818 49.2435 66.3658 48.8595 66.5338 48.4515C66.7258 48.0195 66.8578 47.5755 66.9298 47.1195C67.0738 47.1675 67.1938 47.1915 67.2898 47.1915H67.5418C67.7818 47.1915 67.9378 47.2515 68.0098 47.3715C68.0818 47.4675 68.1178 47.6115 68.1178 47.8035V47.9835L68.4418 48.0915C68.6338 47.7315 68.8618 47.4435 69.1258 47.2275C69.3898 47.0115 69.6538 46.9035 69.9178 46.9035C70.4938 46.9035 70.7818 47.5155 70.7818 48.7395C70.7818 49.3875 70.7098 50.0835 70.5658 50.8275C70.4458 51.5475 70.3858 52.2555 70.3858 52.9515V53.4195C70.3858 54.1875 70.3018 55.0275 70.1338 55.9395C69.9658 56.8275 69.7738 57.7395 69.5578 58.6755C69.3658 59.5875 69.1858 60.4755 69.0178 61.3395C68.8498 62.2035 68.7658 62.9955 68.7658 63.7155C68.7658 63.8835 68.7778 64.0635 68.8018 64.2555C68.8258 64.4475 68.8378 64.6275 68.8378 64.7955C68.8378 65.1555 68.7658 65.3835 68.6218 65.4795C68.5018 65.5515 68.3458 65.5875 68.1538 65.5875C68.1538 65.2755 68.1418 64.8915 68.1178 64.4355C68.0938 63.9795 68.0818 63.5715 68.0818 63.2115C68.0338 63.4755 68.0098 63.8355 68.0098 64.2915C68.0098 64.7475 67.9858 65.1795 67.9378 65.5875H67.3978V66.0195C67.1818 66.4035 66.8938 66.5955 66.5338 66.5955C66.3658 66.5955 66.1738 66.5475 65.9578 66.4515C65.7418 66.3555 65.5738 66.2475 65.4538 66.1275ZM72.8698 38.4795C72.4618 38.7195 72.0898 39.0315 71.7538 39.4155C71.4178 39.7995 71.0698 40.1715 70.7098 40.5315C70.9258 40.3875 71.1178 40.2315 71.2858 40.0635C71.4538 39.8955 71.6218 39.7275 71.7898 39.5595C71.9818 39.3915 72.1738 39.2235 72.3658 39.0555C72.5818 38.8875 72.8218 38.7315 73.0858 38.5875C73.1578 38.6835 73.2178 38.7675 73.2658 38.8395C73.3378 38.9115 73.3738 38.9835 73.3738 39.0555L72.5458 39.8835C72.5458 39.8355 72.4978 39.7875 72.4018 39.7395C72.3298 39.6915 72.2698 39.6675 72.2218 39.6675C72.1498 39.9075 72.0298 40.0995 71.8618 40.2435C71.6938 40.3875 71.5258 40.5195 71.3578 40.6395C71.1898 40.7595 71.0218 40.8915 70.8538 41.0355C70.6858 41.1795 70.5658 41.3715 70.4938 41.6115V41.6835C70.4938 41.7075 70.5298 41.7195 70.6018 41.7195L72.4018 40.0275L71.7178 40.7115C71.3818 41.0475 71.0218 41.3955 70.6378 41.7555C70.2778 42.0915 69.9298 42.3915 69.5938 42.6555C69.2818 42.9195 69.0898 43.0515 69.0178 43.0515L68.9818 43.0155C68.8138 42.9675 68.6338 42.9435 68.4418 42.9435C68.2738 42.9435 68.0938 42.9315 67.9018 42.9075C67.9018 42.7155 67.8658 42.5115 67.7938 42.2955C67.7458 42.0795 67.7218 41.9115 67.7218 41.7915C67.7218 41.6715 67.7818 41.6115 67.9018 41.6115C67.9018 41.5395 67.8538 41.4315 67.7578 41.2875C67.6858 41.1195 67.6018 40.9395 67.5058 40.7475C67.4098 40.5315 67.3138 40.3155 67.2178 40.0995C67.1458 39.8595 67.1098 39.6195 67.1098 39.3795C67.1098 39.1395 67.2058 38.9115 67.3978 38.6955C67.6138 38.4555 67.8538 38.2515 68.1178 38.0835C68.4058 37.9155 68.6818 37.7715 68.9458 37.6515C69.2098 37.5315 69.4018 37.4475 69.5218 37.3995C69.6178 37.3995 69.6538 37.3515 69.6298 37.2555C69.6058 37.1355 69.6418 37.0755 69.7378 37.0755L70.3858 37.2915C70.3378 37.4115 70.1818 37.6155 69.9178 37.9035C69.6778 38.1675 69.4978 38.3595 69.3778 38.4795C69.5458 38.3595 69.7378 38.1795 69.9538 37.9395C70.1938 37.6995 70.3738 37.5195 70.4938 37.3995C70.6138 37.4475 70.7218 37.4955 70.8178 37.5435C70.9138 37.5915 70.9858 37.6155 71.0338 37.6155L71.1418 37.5075C71.3098 37.5075 71.4898 37.5435 71.6818 37.6155C71.8978 37.6875 72.0898 37.7715 72.2578 37.8675C72.4258 37.9635 72.5698 38.0715 72.6898 38.1915C72.8098 38.3115 72.8698 38.4075 72.8698 38.4795ZM64.9138 62.0595C64.9378 61.7955 64.9618 61.5315 64.9858 61.2675C64.9618 61.5555 64.9378 61.8195 64.9138 62.0595ZM95.438 41.7195C95.486 42.4155 95.522 43.0995 95.546 43.7715C95.57 44.4195 95.582 45.0915 95.582 45.7875C95.582 47.2275 95.534 48.6795 95.438 50.1435C95.366 51.5835 95.27 53.0475 95.15 54.5355C95.03 56.0235 94.91 57.5475 94.79 59.1075C94.67 60.6675 94.562 62.2875 94.466 63.9675C94.466 64.2315 94.454 64.5075 94.43 64.7955C94.43 65.0595 94.406 65.3595 94.358 65.6955V66.1275C94.358 66.1995 94.334 66.2955 94.286 66.4155C94.238 66.5355 94.19 66.6195 94.142 66.6675C93.83 67.0275 93.542 67.3035 93.278 67.4955C93.038 67.6635 92.81 67.7955 92.594 67.8915C92.378 67.9635 92.174 67.9995 91.982 67.9995C91.79 68.0235 91.598 68.0475 91.406 68.0715H91.622C91.694 68.0715 91.826 68.0595 92.018 68.0355C92.234 68.0115 92.462 67.9755 92.702 67.9275C92.966 67.8555 93.206 67.7715 93.422 67.6755C93.662 67.5555 93.83 67.3995 93.926 67.2075L94.25 66.5595C94.394 66.2955 94.478 66.0195 94.502 65.7315C94.55 65.4195 94.574 65.1195 94.574 64.8315C94.598 64.5195 94.61 64.2195 94.61 63.9315C94.61 63.6435 94.634 63.3675 94.682 63.1035C94.754 61.5915 94.85 60.0795 94.97 58.5675C95.114 57.0555 95.246 55.5315 95.366 53.9955C95.486 52.4595 95.594 50.9115 95.69 49.3515C95.786 47.7675 95.834 46.1595 95.834 44.5275C95.834 44.0235 95.822 43.5435 95.798 43.0875C95.798 42.6075 95.786 42.1515 95.762 41.7195C95.834 41.8155 95.906 41.9715 95.978 42.1875C96.074 42.3795 96.146 42.6915 96.194 43.1235C96.314 43.3875 96.386 43.6755 96.41 43.9875C96.434 44.2995 96.47 44.6235 96.518 44.9595C96.518 46.5915 96.458 48.1755 96.338 49.7115C96.218 51.2235 96.098 52.7355 95.978 54.2475L95.654 54.3555L95.33 60.5115C95.33 62.2395 95.246 63.6675 95.078 64.7955C94.934 65.8995 94.802 66.6315 94.682 66.9915V67.0995C94.322 67.4595 94.01 67.7355 93.746 67.9275C93.506 68.0955 93.278 68.2275 93.062 68.3235C92.846 68.4195 92.642 68.4675 92.45 68.4675C92.282 68.4915 92.102 68.5035 91.91 68.5035H89.606C88.958 68.4315 88.262 68.3955 87.518 68.3955C86.774 68.4195 85.994 68.3475 85.178 68.1795C84.362 68.0115 83.522 67.6635 82.658 67.1355C81.818 66.6075 80.966 65.7675 80.102 64.6155C80.102 64.6635 80.09 64.6995 80.066 64.7235C80.042 64.7475 80.018 64.7835 79.994 64.8315C80.786 65.9115 81.734 66.7995 82.838 67.4955C83.966 68.1915 85.178 68.5995 86.474 68.7195H89.498C89.786 68.7675 90.074 68.7915 90.362 68.7915C90.674 68.8155 91.01 68.8275 91.37 68.8275C91.73 68.8275 92.198 68.7795 92.774 68.6835C93.374 68.5875 93.938 68.2755 94.466 67.7475C94.562 67.6275 94.622 67.5435 94.646 67.4955C94.694 67.4235 94.742 67.3275 94.79 67.2075L94.898 66.9915C95.018 66.7755 95.102 66.5595 95.15 66.3435C95.222 66.1035 95.282 65.8755 95.33 65.6595C95.33 65.9235 95.306 66.1515 95.258 66.3435C95.234 66.5355 95.15 66.8235 95.006 67.2075L94.898 67.3155L94.466 67.9635C94.25 68.1795 94.01 68.3475 93.746 68.4675C93.482 68.5875 93.23 68.6715 92.99 68.7195C92.75 68.7915 92.522 68.8395 92.306 68.8635C92.114 68.8875 91.97 68.9115 91.874 68.9355H90.686C90.374 68.9355 90.11 68.9235 89.894 68.8995C89.702 68.8995 89.546 68.8875 89.426 68.8635C89.33 68.8635 89.246 68.8515 89.174 68.8275H88.094C87.878 68.8275 87.662 68.8275 87.446 68.8275C87.23 68.8515 87.002 68.8635 86.762 68.8635C85.634 68.8635 84.53 68.5875 83.45 68.0355C82.394 67.5075 81.41 66.7515 80.498 65.7675C79.61 64.7835 78.818 63.6195 78.122 62.2755C77.426 60.9315 76.898 59.4435 76.538 57.8115C76.538 57.5475 76.514 57.2955 76.466 57.0555C76.442 56.8155 76.43 56.5635 76.43 56.2995C76.43 55.4115 76.562 54.5115 76.826 53.5995C77.114 52.6635 77.618 51.8235 78.338 51.0795C79.058 50.3355 80.03 49.7355 81.254 49.2795C82.478 48.7995 84.026 48.5595 85.898 48.5595C86.762 48.5595 87.602 48.5835 88.418 48.6315C89.234 48.6555 90.062 48.6915 90.902 48.7395C90.806 48.8115 90.758 48.8955 90.758 48.9915C90.758 49.1115 90.782 49.2195 90.83 49.3155C90.878 49.3875 90.902 49.4715 90.902 49.5675C90.902 49.6875 90.806 49.7955 90.614 49.8915C90.446 49.9635 90.074 49.9995 89.498 49.9995C89.306 49.9995 89.078 49.9995 88.814 49.9995C88.574 49.9755 88.298 49.9515 87.986 49.9275V50.2515C89.138 50.4195 90.062 50.6475 90.758 50.9355C91.478 51.1995 91.922 51.4395 92.09 51.6555L92.162 51.7275L92.306 50.1435C92.378 49.4955 92.414 48.7635 92.414 47.9475C92.414 47.1075 92.39 46.2795 92.342 45.4635C92.294 44.6475 92.27 44.0115 92.27 43.5555C92.27 42.9795 92.306 42.5955 92.378 42.4035C92.45 42.2115 92.546 42.1155 92.666 42.1155C92.762 42.1155 92.834 42.3195 92.882 42.7275C92.954 43.1355 93.002 43.6035 93.026 44.1315C93.074 44.6355 93.098 45.1395 93.098 45.6435V46.6875C93.098 47.3835 93.086 48.0915 93.062 48.8115C93.038 49.5075 93.002 50.2035 92.954 50.8995C93.026 49.9875 93.086 49.0995 93.134 48.2355C93.182 47.3475 93.206 46.4475 93.206 45.5355C93.206 44.9835 93.194 44.4435 93.17 43.9155C93.146 43.3635 93.11 42.8115 93.062 42.2595C93.206 42.4035 93.314 42.4755 93.386 42.4755C93.482 42.4755 93.554 42.4035 93.602 42.2595C93.578 42.0675 93.554 41.8635 93.53 41.6475C93.506 41.4555 93.494 41.2635 93.494 41.0715V40.5315C93.614 40.2435 93.77 40.0275 93.962 39.8835C94.154 39.7155 94.322 39.6315 94.466 39.6315C94.874 39.6315 95.234 40.0755 95.546 40.9635L95.438 41.7195ZM89.606 52.5195C88.814 52.5675 87.914 52.6155 86.906 52.6635C85.922 52.7115 84.986 52.8435 84.098 53.0595C83.21 53.2515 82.442 53.5515 81.794 53.9595C81.17 54.3675 80.822 54.9315 80.75 55.6515C80.75 56.4435 80.918 57.3315 81.254 58.3155C81.59 59.2995 82.034 60.2355 82.586 61.1235C83.138 61.9875 83.762 62.7315 84.458 63.3555C85.178 63.9795 85.922 64.3275 86.69 64.3995H88.742C88.862 64.3995 88.946 64.4115 88.994 64.4355C89.066 64.4355 89.162 64.4595 89.282 64.5075H90.146C90.506 64.5795 90.866 64.6155 91.226 64.6155C91.226 62.5995 91.31 60.5355 91.478 58.4235C91.67 56.2875 91.874 54.1995 92.09 52.1595C91.778 52.3995 90.95 52.5195 89.606 52.5195ZM92.198 59.9715C92.198 60.2355 92.174 60.5115 92.126 60.7995C92.102 61.0635 92.09 61.3635 92.09 61.6995C92.354 60.3555 92.51 58.9395 92.558 57.4515C92.606 55.9635 92.666 54.5355 92.738 53.1675C92.618 54.3195 92.522 55.4595 92.45 56.5875C92.402 57.6915 92.318 58.8195 92.198 59.9715ZM95.33 63.8595C95.33 63.5955 95.342 63.3315 95.366 63.0675C95.39 62.7795 95.426 62.4795 95.474 62.1675C95.45 62.8875 95.438 63.5715 95.438 64.2195C95.438 64.8435 95.402 65.2875 95.33 65.5515C95.33 65.4315 95.33 65.3235 95.33 65.2275C95.354 65.1075 95.366 64.9875 95.366 64.8675C95.366 64.6755 95.354 64.4955 95.33 64.3275C95.33 64.1595 95.33 64.0035 95.33 63.8595ZM95.87 58.0275C95.822 58.1475 95.786 58.2915 95.762 58.4595C95.738 58.6035 95.702 58.7595 95.654 58.9275L95.798 56.7315L95.87 58.0275ZM95.546 60.8355C95.546 61.0515 95.534 61.2675 95.51 61.4835C95.51 61.6995 95.498 61.9035 95.474 62.0955C95.474 61.6155 95.486 61.1355 95.51 60.6555C95.534 60.1515 95.57 59.6955 95.618 59.2875L95.546 60.8355ZM91.982 63.0675C92.006 62.9715 92.018 62.8755 92.018 62.7795C92.018 62.6835 92.042 62.5755 92.09 62.4555V62.0595C92.066 62.1075 92.054 62.1555 92.054 62.2035C92.054 62.2275 92.042 62.2515 92.018 62.2755L91.982 62.3475V63.0675ZM91.874 64.7955C91.898 64.5795 91.922 64.3635 91.946 64.1475C91.97 63.9075 91.982 63.6675 91.982 63.4275V63.3195L91.838 64.7235L91.874 64.7955Z" fill="#F7F7FC"/>
<defs>
<linearGradient id="paint0_linear_144_639" x1="154.707" y1="63.8107" x2="45.0389" y2="158.459" gradientUnits="userSpaceOnUse">
<stop stop-color="#58D582"/>
<stop offset="1" stop-color="#47A98C"/>
</linearGradient>
</defs>
</svg>
